<?xml version="1.0" standalone="no"?>
<!DOCTYPE svg PUBLIC "-//W3C//DTD SVG 20010904//EN"
 "http://www.w3.org/TR/2001/REC-SVG-20010904/DTD/svg10.dtd">
<svg version="1.0" xmlns="http://www.w3.org/2000/svg"
 width="1200.000000pt" height="1200.000000pt" viewBox="0 0 1200.000000 1200.000000"
 preserveAspectRatio="xMidYMid meet">
<metadata>
Created by potrace 1.16, written by Peter Selinger 2001-2019
</metadata>
<g transform="translate(0.000000,1200.000000) scale(0.100000,-0.100000)"
fill="#000000" stroke="none">
<path d="M11616 8539 c-68 -41 -346 -121 -1001 -289 -418 -106 -862 -192
-1320 -255 -104 -15 -196 -32 -204 -38 -12 -9 -13 -9 -7 1 4 6 5 12 2 12 -3 0
-22 -26 -42 -57 -20 -32 -77 -98 -127 -148 -50 -49 -83 -83 -72 -75 19 14 19
14 6 -2 -7 -10 -17 -15 -22 -13 -8 5 -89 -42 -89 -52 0 -2 5 -1 12 3 7 4 8 3
4 -5 -4 -6 -11 -9 -16 -6 -13 8 -160 -67 -153 -78 3 -5 -3 -7 -13 -3 -11 3
-25 1 -33 -4 -11 -6 0 -15 43 -34 32 -14 64 -26 71 -26 6 0 15 -3 19 -7 9 -9
-84 -34 -158 -42 l-60 -6 90 -57 c50 -31 110 -74 135 -96 24 -21 55 -46 69
-56 l25 -18 -35 6 c-19 4 -66 11 -105 16 -69 9 -171 35 -252 64 -24 8 -43 14
-43 12 0 -2 18 -35 40 -72 22 -38 40 -72 40 -77 0 -4 11 -25 25 -47 14 -22 25
-42 25 -46 0 -3 -21 11 -47 31 -55 42 -136 95 -140 91 -1 -1 4 -25 11 -53 8
-29 17 -85 21 -125 4 -40 13 -100 21 -133 7 -32 12 -61 10 -63 -3 -2 -21 25
-41 60 -20 35 -53 85 -74 111 -21 27 -56 82 -77 122 -21 40 -41 72 -43 69 -3
-2 -13 -36 -23 -76 l-18 -71 45 -52 c93 -109 97 -58 -80 -925 -36 -178 -45
-274 -27 -292 17 -17 104 -29 164 -22 54 6 57 5 87 -27 27 -30 30 -39 25 -74
-11 -81 -44 -162 -81 -200 -99 -102 -314 -132 -458 -64 -64 30 -158 135 -184
204 -40 106 -32 188 63 656 47 228 101 495 121 594 19 99 42 194 50 210 13 26
65 196 65 211 0 3 -19 -8 -42 -24 -24 -16 -80 -48 -125 -71 l-82 -41 64 95
c36 52 62 95 59 95 -3 0 -41 -9 -85 -20 -63 -16 -222 -38 -284 -40 -5 0 2 8
16 18 14 9 53 37 86 62 32 25 100 68 151 95 50 28 92 52 92 55 0 3 -35 13 -77
23 -43 9 -91 24 -107 32 -15 8 -34 15 -42 15 -7 0 -28 9 -46 21 -18 12 -25 18
-15 15 9 -3 25 -9 35 -12 9 -3 -18 13 -61 35 -44 23 -83 39 -87 36 -5 -3 -12
0 -16 6 -5 8 -2 10 7 5 8 -4 3 2 -11 13 -14 11 -30 19 -37 16 -7 -2 -15 1 -19
7 -5 7 -2 8 7 3 12 -8 12 -6 0 8 -16 20 -36 23 -25 5 5 -9 2 -8 -9 1 -10 8
-15 16 -12 19 6 7 -15 32 -27 32 -5 0 -6 -6 -2 -12 4 -7 -19 12 -50 42 -31 30
-56 57 -56 59 0 3 23 -17 52 -44 l52 -50 -45 52 -44 52 -63 1 c-35 0 -285 -4
-555 -10 -271 -5 -762 -14 -1092 -20 -1124 -20 -1631 -49 -2315 -135 -700 -89
-1088 -181 -1406 -335 -512 -248 -810 -639 -979 -1285 -79 -299 -112 -544
-255 -1885 -60 -562 -67 -646 -52 -623 27 42 301 125 1042 313 721 184 1520
303 2440 364 496 33 984 51 1860 66 1135 20 1750 41 2240 75 278 20 1034 89
1264 115 509 59 863 148 1175 296 474 225 802 662 966 1286 53 205 82 383 120
753 20 187 69 648 111 1024 41 376 74 693 72 706 -3 21 -3 22 -32 4z m-1403
-1243 c59 -24 117 -111 117 -176 0 -34 -22 -91 -47 -120 -117 -139 -344 -53
-343 130 0 34 33 102 61 130 51 49 144 65 212 36z m-3999 -35 l28 -29 -33
-156 c-18 -86 -30 -157 -28 -159 2 -2 87 4 189 14 259 25 250 26 283 -16 l28
-35 -21 -82 c-29 -110 -41 -138 -81 -177 -66 -67 -142 -87 -399 -109 l-85 -7
-18 -70 c-9 -38 -49 -227 -88 -419 -74 -364 -77 -401 -42 -455 15 -23 18 -24
127 -18 78 3 132 12 180 28 l69 23 25 -29 c22 -26 24 -35 18 -86 -7 -69 -40
-162 -73 -207 -64 -86 -187 -132 -354 -132 -166 0 -247 37 -355 161 -89 102
-117 216 -95 381 6 47 63 334 126 639 111 540 116 556 161 648 73 148 202 261
348 307 57 18 59 17 90 -15z m3276 -67 c75 -22 170 -91 205 -148 29 -47 30
-55 33 -183 2 -73 1 -133 -2 -133 -3 0 -27 14 -53 30 -149 95 -441 107 -610
25 -38 -17 -82 -47 -100 -65 -37 -38 -61 -117 -44 -148 12 -23 85 -49 243 -86
194 -46 303 -106 389 -213 70 -88 82 -117 87 -213 12 -249 -131 -463 -393
-590 -190 -92 -494 -122 -658 -64 -108 38 -214 136 -237 218 -18 66 5 256 32
256 5 0 24 -11 41 -24 81 -62 217 -96 379 -96 211 0 341 54 385 159 18 43 19
129 1 146 -7 7 -107 40 -222 74 -243 72 -289 93 -369 170 -89 85 -110 127
-115 230 -12 255 137 470 411 596 171 78 443 105 597 59z m-5750 -56 c90 -28
169 -78 224 -142 68 -80 90 -135 89 -226 0 -62 -23 -186 -39 -211 -2 -3 -26
16 -53 42 -59 57 -147 104 -233 124 -85 20 -270 19 -360 -1 -290 -66 -521
-283 -623 -587 -55 -165 -74 -418 -41 -547 53 -204 175 -290 416 -290 194 0
369 61 549 191 l84 60 26 -25 25 -25 -16 -83 c-23 -116 -53 -190 -106 -261
-178 -234 -547 -342 -860 -251 -144 42 -234 95 -338 198 -134 135 -202 262
-240 447 -23 113 -15 357 15 479 34 136 70 237 127 359 212 450 572 714 1049
771 96 11 227 2 305 -22z m3787 -126 c39 -21 97 -82 122 -129 6 -12 11 -39 11
-60 -1 -55 -35 -208 -46 -206 -5 1 -29 10 -53 18 -59 21 -188 21 -253 -1 -72
-24 -159 -108 -203 -198 -40 -79 -59 -162 -189 -789 -46 -218 -86 -400 -90
-404 -10 -10 -170 -16 -212 -9 -47 9 -138 94 -155 144 -7 22 -9 64 -6 111 6
76 149 779 188 920 86 319 285 542 543 612 102 27 283 23 343 -9z m-2432 -203
c132 -40 213 -93 291 -191 87 -107 114 -181 114 -308 0 -281 -153 -438 -509
-524 -127 -31 -267 -51 -485 -71 -93 -8 -172 -17 -174 -20 -10 -10 19 -170 36
-204 13 -26 34 -44 77 -66 58 -29 65 -30 190 -30 201 1 313 31 485 129 l95 54
28 -27 c26 -24 28 -30 21 -76 -24 -182 -118 -307 -291 -386 -183 -84 -484
-107 -648 -50 -135 47 -291 192 -360 336 -94 192 -85 483 21 753 121 306 295
504 548 622 189 89 395 110 561 59z m3545 -1609 c26 -26 25 -46 -5 -75 -29
-30 -45 -31 -72 -6 -20 19 -20 19 -36 0 -30 -35 -97 -13 -97 33 0 47 78 77
101 40 11 -18 13 -17 35 5 28 28 48 29 74 3z m860 -68 c12 -10 23 -29 23 -43
0 -34 -22 -167 -34 -205 -11 -36 -63 -89 -102 -103 -35 -14 -127 -14 -161 -1
-18 6 -33 5 -56 -7 -21 -10 -83 -18 -187 -25 -135 -8 -162 -7 -198 6 -38 15
-44 15 -76 -1 -49 -25 -138 -29 -177 -9 -30 16 -34 15 -72 -4 -23 -12 -69 -23
-104 -27 l-64 -6 -6 -36 c-12 -75 -111 -138 -175 -112 -48 20 -52 91 -4 91 62
0 72 21 103 210 32 196 26 180 70 180 53 0 64 -17 57 -93 -4 -34 -9 -78 -13
-98 l-6 -36 47 7 c25 4 52 13 60 21 11 11 45 164 45 202 0 14 69 7 85 -10 15
-14 16 -29 10 -95 -7 -90 0 -108 47 -108 48 0 74 36 88 121 17 109 17 109 52
109 58 0 68 -21 61 -120 -6 -86 -5 -87 18 -93 38 -11 77 -8 85 5 5 7 17 69 29
138 19 116 22 125 44 128 37 6 69 -6 76 -28 4 -11 -1 -68 -11 -125 -9 -58 -14
-108 -11 -111 11 -11 78 7 96 25 13 13 24 54 36 135 l19 116 38 0 c28 0 41 -6
53 -23 13 -20 13 -33 1 -103 -8 -43 -17 -91 -21 -106 -7 -27 -6 -28 33 -28 66
0 80 20 102 145 11 61 22 116 25 123 7 18 49 15 75 -6z m-1352 -68 c26 -18 28
-46 8 -161 -21 -116 -52 -167 -119 -192 -36 -14 -127 -14 -162 -1 -19 7 -33 6
-54 -5 -16 -8 -58 -17 -95 -21 -61 -6 -68 -9 -86 -40 -72 -115 -256 -183 -356
-131 -42 22 -89 77 -104 123 -26 78 9 215 62 241 30 15 74 24 81 17 3 -3 -8
-27 -24 -53 -53 -86 -48 -199 10 -231 33 -17 111 -12 158 11 69 33 90 80 121
269 l26 160 37 0 c34 0 69 -20 69 -38 0 -4 -7 -55 -17 -114 -9 -59 -14 -110
-10 -114 9 -9 70 4 91 19 12 9 23 48 38 134 20 111 23 122 45 128 13 3 32 1
43 -5 38 -21 41 -43 20 -152 -11 -57 -20 -104 -20 -105 0 -2 18 -3 39 -3 66 0
79 20 101 150 11 63 20 118 20 123 0 13 55 7 78 -9z m620 -380 c32 -22 30 -69
-4 -91 -25 -16 -28 -16 -57 0 -27 16 -31 16 -47 2 -20 -18 -61 -20 -78 -3 -20
20 -14 65 10 82 29 20 52 20 72 0 15 -14 18 -14 42 5 32 25 33 25 62 5z"/>
<path d="M10080 7269 c-109 -45 -134 -187 -48 -266 37 -34 98 -48 144 -33 131
42 155 199 43 283 -31 23 -103 31 -139 16z m110 -59 c25 -25 26 -54 2 -77 -16
-17 -16 -20 0 -53 22 -41 23 -70 4 -70 -8 0 -17 14 -21 33 -10 42 -22 57 -51
57 -22 0 -24 -4 -24 -45 0 -33 -4 -45 -15 -45 -12 0 -15 18 -15 103 0 57 3
107 7 110 15 16 93 7 113 -13z"/>
<path d="M4764 6446 c-167 -53 -307 -191 -369 -365 -18 -51 -37 -50 237 -11
243 35 294 47 361 89 80 52 113 136 86 223 -12 37 -20 45 -59 60 -54 20 -195
23 -256 4z"/>
</g>
</svg>
